# xmcd
#
# Track frame offsets: 
#        150
#        10355
#        21607
#        30946
#        42292
#        50456
#        62353
#        74214
#        86484
#        95808
#        109115
#        118400
#        129985
#        141238
#
# Disc length: 2029 seconds
#
# Revision: 2
# Processed by: cddbd v1.5.2PL0 Copyright (c) Steve Scherf et al.
# Submitted via: ExactAudioCopy v0.99pb4
#
DISCID=ca07eb0e
DTITLE=Beatles - Beatles For Sale (2009 Remaster)
DYEAR=1964
DGENRE=Rock
TTITLE0=No Reply
TTITLE1=I'm A Loser
TTITLE2=Baby's In Black
TTITLE3=Rock And Roll Music
TTITLE4=I'll Follow The Sun
TTITLE5=Mr. Moonlight
TTITLE6=Kansas City
TTITLE7=Eight Days A Week
TTITLE8=Words Of Love
TTITLE9=Honey Don't
TTITLE10=Every Little Thing
TTITLE11=I Don't Want To Spoil The Party
TTITLE12=What You're Doing
TTITLE13=Everybody's Trying To Be My Baby
EXTD=
EXTT0=
EXTT1=
EXTT2=
EXTT3=
EXTT4=
EXTT5=
EXTT6=
EXTT7=
EXTT8=
EXTT9=
EXTT10=
EXTT11=
EXTT12=
EXTT13=
PLAYORDER=
